<?xml version="1.0" encoding="utf-8"?>
<!-- Generator: Adobe Illustrator 17.1.0, SVG Export Plug-In . SVG Version: 6.00 Build 0)  -->
<!DOCTYPE svg PUBLIC "-//W3C//DTD SVG 1.1//EN" "http://www.w3.org/Graphics/SVG/1.1/DTD/svg11.dtd">
<svg version="1.1" id="Layer_1" xmlns="http://www.w3.org/2000/svg" xmlns:xlink="http://www.w3.org/1999/xlink" x="0px" y="0px"
	 viewBox="241.3 246 51.5 32.2" enable-background="new 241.3 246 51.5 32.2" xml:space="preserve">
<path fill="#FFFFFF" d="M241.3,249.2v25.7c0,1.8,1.4,3.2,3.2,3.2h45c1.8,0,3.2-1.4,3.2-3.2v-25.7c0-1.8-1.4-3.2-3.2-3.2h-45
	C242.8,246,241.3,247.4,241.3,249.2z"/>
<path fill="#173D5A" d="M241.3,249.2v25.7c0,1.8,1.4,3.2,3.2,3.2h45c1.8,0,3.2-1.4,3.2-3.2v-25.7c0-1.8-1.4-3.2-3.2-3.2h-45
	C242.8,246,241.3,247.4,241.3,249.2z M244.5,267.7v-11.3c0-0.4,0.4-0.8,0.8-0.8c0.4,0,0.8,0.4,0.8,0.8v11.3c0,0.4-0.4,0.8-0.8,0.8
	C244.9,268.5,244.5,268.1,244.5,267.7z M291.2,262c0,1.3-1.1,2.4-2.4,2.4s-2.4-1.1-2.4-2.4s1.1-2.4,2.4-2.4S291.2,260.7,291.2,262z
	 M284.8,249.2l0,25.7h-35.4v-25.7H284.8z"/>
<polygon fill="#173D5A" points="275.5,252.5 264,264 258.6,258.6 254.8,262.4 264,271.6 279.3,256.3 "/>
</svg>
